<?xml version="1.0" encoding="UTF-8"?>
<svg width="36" height="36" viewBox="0 0 36 36" fill="none" xmlns="http://www.w3.org/2000/svg">
  <!-- Background Circle -->
  <circle cx="18" cy="18" r="18" fill="#E2E8F0"/>
  <!-- Stylized User Icon -->
  <path fill-rule="evenodd" clip-rule="evenodd" d="M18 12.5C16.6193 12.5 15.5 13.6193 15.5 15C15.5 16.3807 16.6193 17.5 18 17.5C19.3807 17.5 20.5 16.3807 20.5 15C20.5 13.6193 19.3807 12.5 18 12.5ZM13.5 15C13.5 12.5147 15.5147 10.5 18 10.5C20.4853 10.5 22.5 12.5147 22.5 15C22.5 17.4853 20.4853 19.5 18 19.5C15.5147 19.5 13.5 17.4853 13.5 15Z" fill="#94A3B8"/>
  <path fill-rule="evenodd" clip-rule="evenodd" d="M18 19.5C14.5817 19.5 11.5 21.6267 11.5 24.9V25.5H24.5V24.9C24.5 21.6267 21.4183 19.5 18 19.5ZM9.5 24.9C9.5 20.5133 13.4183 17.5 18 17.5C22.5817 17.5 26.5 20.5133 26.5 24.9V27.5H9.5V24.9Z" fill="#94A3B8"/>
</svg>
